<?xml version="1.0" encoding="UTF-8"?>
<svg version="1.1" xmlns="http://www.w3.org/2000/svg" width="800" height="800">
<path d="M0 0 C1.99025315 1.70517519 3.80989444 3.40953636 5.644104 5.2698822 C6.20288482 5.82468862 6.76166564 6.37949503 7.33737922 6.95111376 C9.21162127 8.81571603 11.07493236 10.69087248 12.93847656 12.56616211 C14.27832164 13.90357983 15.61881197 15.24035138 16.9598999 16.57652283 C20.60286627 20.21007036 24.23633457 23.85298169 27.86793232 27.49788737 C31.66415995 31.30541285 35.46807786 35.10524129 39.27093506 38.90614319 C45.65492013 45.28924492 52.03289173 51.67830705 58.40722656 58.07104492 C65.78655924 65.47155937 73.17469743 72.86319063 80.56774545 80.25000185 C87.66954088 87.34611189 94.76566649 94.44786427 101.85900116 101.55243111 C104.88278311 104.5808686 107.90845437 107.60740005 110.93561554 110.63245964 C114.49590108 114.19086792 118.05118079 117.75420245 121.60257721 121.3214817 C122.91023099 122.63339435 124.2196063 123.94359353 125.53077698 125.25199127 C127.31312038 127.03113538 129.08924245 128.81625958 130.86383057 130.60313416 C131.39027106 131.12579532 131.91671154 131.64845649 132.45910478 132.18695587 C136 135.77167091 136 135.77167091 136 138 C136.66 138 137.32 138 138 138 C138 138.66 138 139.32 138 140 C138.66 140 139.32 140 140 140 C140 140.66 140 141.32 140 142 C140.66 142 141.32 142 142 142 C142 142.66 142 143.32 142 144 C142.66 144 143.32 144 144 144 C144 144.66 144 145.32 144 146 C144.66 146 145.32 146 146 146 C146 146.66 146 147.32 146 148 C146.55171875 148.226875 147.1034375 148.45375 147.671875 148.6875 C150.68692417 150.38725926 152.81230369 152.54804816 155.25 155 C156.14203125 155.886875 157.0340625 156.77375 157.953125 157.6875 C160 160 160 160 160 162 C160.53109375 162.20625 161.0621875 162.4125 161.609375 162.625 C165.00773436 164.57961192 167.51055928 167.22123717 170.25 170 C171.08144531 170.81984375 171.08144531 170.81984375 171.9296875 171.65625 C176 175.7466133 176 175.7466133 176 178 C176.928125 178.37125 176.928125 178.37125 177.875 178.75 C180.40358627 180.23740369 180.71839004 181.43678009 182 184 C182.62261719 184.30421875 183.24523437 184.6084375 183.88671875 184.921875 C186.20303982 186.10358408 187.22394715 187.21738483 188.8125 189.25 C190.90318933 191.80000744 193.01754895 193.96568164 195.5625 196.0625 C198.80742666 198.73938698 201.3047579 201.76570948 204 205 C205.10720754 205.97883565 206.23347435 206.93641225 207.375 207.875 C210.79540535 210.69795463 213.59472409 213.85719072 216.421875 217.265625 C218.0792468 219.22768174 218.0792468 219.22768174 221 221 C221 221.66 221 222.32 221 223 C221.66 223 222.32 223 223 223 C224.625 224.375 224.625 224.375 226 226 C226 226.66 226 227.32 226 228 C226.99 228.33 227.98 228.66 229 229 C229 229.66 229 230.32 229 231 C229.66 231 230.32 231 231 231 C231 231.66 231 232.32 231 233 C231.66 233 232.32 233 233 233 C233 233.66 233 234.32 233 235 C233.66 235 234.32 235 235 235 C235 235.66 235 236.32 235 237 C235.66 237 236.32 237 237 237 C238.55078125 238.57421875 238.55078125 238.57421875 240.3125 240.6875 C243.08494411 243.94583638 245.93442091 247.01106039 249 250 C250.27216614 251.26949913 251.54293941 252.5403952 252.8125 253.8125 C253.8749244 254.87507559 254.93741188 255.93758813 256 257 C253.8965585 264.33769505 251.44888858 271.50575529 248.82421875 278.671875 C248.42200607 279.77687347 248.0197934 280.88187195 247.60539246 282.02035522 C246.30226612 285.59794548 244.99501104 289.17401016 243.6875 292.75 C242.78710364 295.21852579 241.88687694 297.68711346 240.98681641 300.15576172 C235.63724202 314.81986794 230.26808028 329.47683694 224.875 344.125 C224.58386322 344.91596069 224.29272644 345.70692139 223.99276733 346.52185059 C223.18102616 348.72585721 222.36814652 350.9294394 221.5546875 353.1328125 C220.88155518 354.95643311 220.88155518 354.95643311 220.19482422 356.81689453 C219.16492118 359.56063703 218.09196142 362.28062806 217 365 C215.59961887 368.69902604 214.2378725 372.4120152 212.875 376.125 C212.50246094 377.12660156 212.12992188 378.12820313 211.74609375 379.16015625 C211.39417969 380.12050781 211.04226563 381.08085937 210.6796875 382.0703125 C210.35726074 382.94445801 210.03483398 383.81860352 209.70263672 384.71923828 C208.85279175 387.08008196 208.85279175 387.08008196 209 390 C208.34 390 207.68 390 207 390 C206.80664062 391.08039551 206.80664062 391.08039551 206.609375 392.18261719 C206.01472389 394.9319256 205.21345592 397.43750554 204.25 400.078125 C203.71439453 401.55490723 203.71439453 401.55490723 203.16796875 403.06152344 C202.78253906 404.1137207 202.39710938 405.16591797 202 406.25 C201.60425781 407.34086914 201.20851563 408.43173828 200.80078125 409.55566406 C199.10947333 414.21743155 197.40980543 418.87613964 195.7109375 423.53515625 C194.47107803 426.93906493 193.23544199 430.34448604 192 433.75 C191.61457031 434.80219727 191.22914063 435.85439453 190.83203125 436.93847656 C190.29642578 438.41525879 190.29642578 438.41525879 189.75 439.921875 C189.43546875 440.78393555 189.1209375 441.64599609 188.796875 442.53417969 C187.99741889 445.00798689 187.45765641 447.44284479 187 450 C186.34 450 185.68 450 185 450 C184.89204102 450.66193359 184.78408203 451.32386719 184.67285156 452.00585938 C183.83006751 455.75618724 182.5514756 459.30317498 181.234375 462.90625 C180.95909973 463.66740112 180.68382446 464.42855225 180.40020752 465.21276855 C179.81681819 466.82376775 179.23171698 468.43414792 178.64501953 470.04394531 C177.76353378 472.46286148 176.88713717 474.88356983 176.01171875 477.3046875 C174.6154465 481.16139351 173.20121599 485.01122722 171.78155518 488.859375 C171.03806097 490.89575367 170.31607973 492.93853124 169.59912109 494.984375 C168.96611084 496.74007812 168.96611084 496.74007812 168.3203125 498.53125 C167.96211426 499.54767578 167.60391602 500.56410156 167.23486328 501.61132812 C165.83207519 504.32482727 164.96164602 504.99438061 162.125 506 C160.41857557 506.34297163 158.70993652 506.67499079 157 507 C154.67924977 507.76714455 152.36741074 508.56150209 150.0625 509.375 C144.64970859 511.20464724 139.20131611 512.81755471 133.6875 514.3125 C126.40910207 516.28749119 119.20129507 518.44813663 112 520.6875 C101.69422542 523.88997206 91.35797529 526.97204664 81 530 C70.97772959 532.93089201 60.97240186 535.90251154 51 539 C40.3021986 542.32280195 29.56446834 545.49567584 18.81311035 548.63946533 C9.10274577 551.48021421 -0.58548256 554.38098093 -10.25 557.375 C-34.88649532 565 -34.88649532 565 -39 565 C-39.33 565.66 -39.66 566.32 -40 567 C-42.62890972 567.80572848 -45.2036245 568.49780749 -47.875 569.125 C-48.60847656 569.30675781 -49.34195312 569.48851562 -50.09765625 569.67578125 C-53.13000439 570.41039382 -55.86921325 571 -59 571 C-59.33 571.66 -59.66 572.32 -60 573 C-62.62890972 573.80572848 -65.2036245 574.49780749 -67.875 575.125 C-68.60847656 575.30675781 -69.34195312 575.48851562 -70.09765625 575.67578125 C-73.13000439 576.41039382 -75.86921325 577 -79 577 C-79.33 577.66 -79.66 578.32 -80 579 C-82.62890972 579.80572848 -85.2036245 580.49780749 -87.875 581.125 C-88.60847656 581.30675781 -89.34195312 581.48851562 -90.09765625 581.67578125 C-93.13000439 582.41039382 -95.86921325 583 -99 583 C-99.33 583.66 -99.66 584.32 -100 585 C-102.62890972 585.80572848 -105.2036245 586.49780749 -107.875 587.125 C-108.60847656 587.30675781 -109.34195312 587.48851562 -110.09765625 587.67578125 C-113.13000439 588.41039382 -115.86921325 589 -119 589 C-119.33 589.66 -119.66 590.32 -120 591 C-122.62890972 591.80572848 -125.2036245 592.49780749 -127.875 593.125 C-128.60847656 593.30675781 -129.34195312 593.48851562 -130.09765625 593.67578125 C-133.13000439 594.41039382 -135.86921325 595 -139 595 C-139.33 595.66 -139.66 596.32 -140 597 C-142.62890972 597.80572848 -145.2036245 598.49780749 -147.875 599.125 C-148.60847656 599.30675781 -149.34195312 599.48851562 -150.09765625 599.67578125 C-153.13000439 600.41039382 -155.86921325 601 -159 601 C-159.33 601.66 -159.66 602.32 -160 603 C-162.62890972 603.80572848 -165.2036245 604.49780749 -167.875 605.125 C-168.97521484 605.39763672 -168.97521484 605.39763672 -170.09765625 605.67578125 C-173.13000439 606.41039382 -175.86921325 607 -179 607 C-179.33 607.66 -179.66 608.32 -180 609 C-182.62890972 609.80572848 -185.2036245 610.49780749 -187.875 611.125 C-188.97521484 611.39763672 -188.97521484 611.39763672 -190.09765625 611.67578125 C-193.13000439 612.41039382 -195.86921325 613 -199 613 C-199.33 613.66 -199.66 614.32 -200 615 C-202.62890972 615.80572848 -205.2036245 616.49780749 -207.875 617.125 C-208.97521484 617.39763672 -208.97521484 617.39763672 -210.09765625 617.67578125 C-213.13000439 618.41039382 -215.86921325 619 -219 619 C-219.33 619.66 -219.66 620.32 -220 621 C-222.62890972 621.80572848 -225.2036245 622.49780749 -227.875 623.125 C-228.97521484 623.39763672 -228.97521484 623.39763672 -230.09765625 623.67578125 C-233.13000439 624.41039382 -235.86921325 625 -239 625 C-239.33 625.66 -239.66 626.32 -240 627 C-242.62890972 627.80572848 -245.2036245 628.49780749 -247.875 629.125 C-248.97521484 629.39763672 -248.97521484 629.39763672 -250.09765625 629.67578125 C-253.13000439 630.41039382 -255.86921325 631 -259 631 C-259.33 631.66 -259.66 632.32 -260 633 C-262.62890972 633.80572848 -265.2036245 634.49780749 -267.875 635.125 C-268.97521484 635.39763672 -268.97521484 635.39763672 -270.09765625 635.67578125 C-273.13000439 636.41039382 -275.86921325 637 -279 637 C-279.33 637.66 -279.66 638.32 -280 639 C-282.52335317 639.73412042 -285.0026555 640.36310282 -287.5625 640.9375 C-292.52698005 642.10788542 -297.26530929 643.3472568 -301.99609375 645.2734375 C-307.36348147 647.2195079 -313.27485212 649 -319 649 C-319.33 649.66 -319.66 650.32 -320 651 C-322.62890972 651.80572848 -325.2036245 652.49780749 -327.875 653.125 C-328.97521484 653.39763672 -328.97521484 653.39763672 -330.09765625 653.67578125 C-333.13000439 654.41039382 -335.86921325 655 -339 655 C-339.33 655.66 -339.66 656.32 -340 657 C-342.10302734 657.66699219 -342.10302734 657.66699219 -344.9609375 658.296875 C-350.21611938 659.5332052 -355.37375346 660.95531706 -360.5390625 662.515625 C-361.27840027 662.73738403 -362.01773804 662.95914307 -362.77947998 663.18762207 C-365.84858313 664.10905646 -368.91648967 665.0342324 -371.98193359 665.96777344 C-374.24908774 666.65685218 -376.51878966 667.33690416 -378.7890625 668.015625 C-379.83267441 668.33735687 -379.83267441 668.33735687 -380.89736938 668.66558838 C-385.7730132 670.1134934 -385.7730132 670.1134934 -388 669 C-352.03018328 632.91584828 -316.04728248 596.84478977 -280.04667883 560.79135218 C-275.80071816 556.53913765 -271.55486644 552.28681435 -267.30908203 548.03442383 C-266.46378729 547.18781754 -265.61849255 546.34121125 -264.74758282 545.46895022 C-251.04397097 531.74355582 -237.34921253 518.00936018 -223.65768072 504.27191674 C-209.61857848 490.18612911 -195.57006187 476.10978326 -181.51268029 462.04223782 C-172.83222125 453.35490319 -164.15927302 444.66020516 -155.4956561 435.95607377 C-149.5615969 429.99567391 -143.61845459 424.04443386 -137.66795459 418.10044771 C-134.2302453 414.66595483 -130.79681391 411.22744243 -127.37406349 407.77803612 C-124.24491901 404.62469965 -121.10462551 401.48294622 -117.95478299 398.35028852 C-116.81305031 397.21068217 -115.6755981 396.06676912 -114.54274818 394.91833227 C-113.01032436 393.36604558 -111.46352605 391.82973142 -109.9119072 390.29666805 C-109.05373925 389.4366015 -108.1955713 388.57653496 -107.31139827 387.69040579 C-105 386 -105 386 -102.85950971 386.16358715 C-102.2458715 386.43960339 -101.6322333 386.71561963 -101 387 C-100.12085938 387.35835937 -99.24171875 387.71671875 -98.3359375 388.0859375 C-97.35882813 388.51132812 -96.38171875 388.93671875 -95.375 389.375 C-75.44331858 397.76473451 -55.74621245 398.09952944 -35.25 390.75 C-14.39160222 382.17176052 -0.85557186 366.22730251 8 346 C10.62327084 339.3965941 12.17598407 333.38252407 11.9375 326.2578125 C12 324 12 324 12.546875 320.734375 C13.03320027 316.72638395 12.79622291 313.09444299 12.25 309.125 C12.15928223 308.42608643 12.06856445 307.72717285 11.97509766 307.00708008 C11.22999076 301.69834737 9.86594956 297.00413745 8 292 C8 291.01 8 290.02 8 289 C7.34 288.67 6.68 288.34 6 288 C5.27954236 286.0187415 4.61998741 284.01495907 4 282 C3.34588315 280.32836805 2.68346682 278.65984798 2 277 C1.34 277 0.68 277 0 277 C-0.804375 275.4221875 -0.804375 275.4221875 -1.625 273.8125 C-3.80306086 269.98742493 -6.51381166 267.70357463 -10 265 C-10.78375 264.195625 -11.5675 263.39125 -12.375 262.5625 C-27.07578603 248.21173269 -46.4342239 242.62155596 -66.56689453 242.69555664 C-86.44053038 243.15561509 -105.55038693 251.41971325 -120 265 C-126.04177532 270.78464163 -126.04177532 270.78464163 -129 278 C-129.66 278 -130.32 278 -131 278 C-131.66888386 279.66577808 -132.33484258 281.33273043 -133 283 C-133.474375 284.18851562 -133.94875 285.37703125 -134.4375 286.6015625 C-141.13282131 303.67908408 -143.20688903 319.98670369 -138.75390625 337.94921875 C-138 341 -138 341 -137.52734375 344.33203125 C-137.35332031 345.21246094 -137.17929687 346.09289062 -137 347 C-136.34 347.33 -135.68 347.66 -135 348 C-134.18359375 349.671875 -134.18359375 349.671875 -133.4375 351.75 C-133.18871094 352.42546875 -132.93992187 353.1009375 -132.68359375 353.796875 C-131.92033537 356.25674772 -131.26898106 358.42918011 -131 361 C-132.15705872 362.89204407 -132.15705872 362.89204407 -133.97583008 364.6887207 C-134.65015579 365.36904861 -135.32448151 366.04937653 -136.01924133 366.75032043 C-137.13313484 367.82717354 -137.13313484 367.82717354 -138.26953125 368.92578125 C-139.02086838 369.67337204 -139.77220551 370.42096283 -140.54631042 371.19120789 C-142.13759914 372.76904651 -143.73606967 374.33966987 -145.34106445 375.90356445 C-147.80622876 378.30638735 -150.24937569 380.7299337 -152.68945312 383.15820312 C-154.23573956 384.68615134 -155.78322574 386.21288656 -157.33203125 387.73828125 C-158.06855423 388.46630447 -158.80507721 389.1943277 -159.56391907 389.94441223 C-160.24770126 390.60897934 -160.93148346 391.27354645 -161.63598633 391.95825195 C-162.23856766 392.54717728 -162.84114899 393.1361026 -163.46199036 393.74287415 C-165 395 -165 395 -167 395 C-167.25023926 395.57490173 -167.50047852 396.14980347 -167.75830078 396.74212646 C-169.17331088 399.315144 -170.79347303 401.04754911 -172.8671875 403.12597656 C-173.66141113 403.92650452 -174.45563477 404.72703247 -175.27392578 405.55181885 C-176.13228027 406.40612488 -176.99063477 407.26043091 -177.875 408.140625 C-178.75526855 409.02280701 -179.63553711 409.90498901 -180.54248047 410.81390381 C-182.87898248 413.15211439 -185.22029419 415.48538201 -187.56323242 417.81713867 C-189.47820763 419.72690749 -191.38572401 421.64404093 -193.29330444 423.56119156 C-195.56569023 425.8425236 -197.84566231 428.11624194 -200.125 430.390625 C-200.98335449 431.25302795 -201.84170898 432.11543091 -202.72607422 433.00396729 C-203.52029785 433.7918866 -204.31452148 434.57980591 -205.1328125 435.39160156 C-205.83293457 436.09013245 -206.53305664 436.78866333 -207.25439453 437.50836182 C-209 439 -209 439 -211 439 C-211 439.66 -211 440.32 -211 441 C-211.66 441 -212.32 441 -213 441 C-213.66 442.32 -214.32 443.64 -215 445 C-215.66 445 -216.32 445 -217 445 C-217.66 446.32 -218.32 447.64 -219 449 C-219.66 449 -220.32 449 -221 449 C-221.66 450.32 -222.32 451.64 -223 453 C-223.66 453 -224.32 453 -225 453 C-225.66 454.32 -226.32 455.64 -227 457 C-227.66 457 -228.32 457 -229 457 C-229.66 458.32 -230.32 459.64 -231 461 C-231.66 461 -232.32 461 -233 461 C-233.66 462.32 -234.32 463.64 -235 465 C-235.66 465 -236.32 465 -237 465 C-237.3403125 465.8353125 -237.3403125 465.8353125 -237.6875 466.6875 C-239.37377267 469.65855185 -241.530354 471.64522125 -244 474 C-244.825 474.845625 -245.65 475.69125 -246.5 476.5625 C-248.89178403 478.89448943 -251.39394339 480.91515471 -254 483 C-258.19564028 486.96254916 -261.98473981 491.28786159 -265.81640625 495.59765625 C-269.83098592 500.01441205 -269.83098592 500.01441205 -272 502 C-272.66 502 -273.32 502 -274 502 C-274.33 502.99 -274.66 503.98 -275 505 C-276.3828125 506.32421875 -276.3828125 506.32421875 -278.125 507.6875 C-281.54606271 510.50567051 -284.38265217 513.58077295 -287.2265625 516.97265625 C-289.37767251 519.43174456 -291.68461337 521.69415507 -294 524 C-295.00574993 525.01444137 -296.01051006 526.02986478 -297.0144043 527.04614258 C-299.93925341 530.00636748 -302.87001077 532.96066164 -305.80297852 535.9128418 C-307.06646722 537.18647901 -308.32816847 538.46189176 -309.58813477 539.73901367 C-311.4121853 541.58719248 -313.24250523 543.42895096 -315.07421875 545.26953125 C-315.63880295 545.84443802 -316.20338715 546.41934479 -316.78507996 547.01167297 C-318.15261225 548.37959931 -319.57193248 549.69539653 -321 551 C-321.66 551 -322.32 551 -323 551 C-323.4021875 551.8971875 -323.4021875 551.8971875 -323.8125 552.8125 C-324.99917406 554.99847854 -326.09599113 556.41332594 -328 558 C-328.66 558 -329.32 558 -330 558 C-330.2626767 558.58743862 -330.52535339 559.17487724 -330.79598999 559.78011703 C-332.06046897 562.11148914 -333.39418424 563.64574326 -335.26416016 565.51812744 C-335.93715149 566.19675842 -336.61014282 566.8753894 -337.30352783 567.57458496 C-338.04125427 568.30826294 -338.77898071 569.04194092 -339.5390625 569.79785156 C-340.31642761 570.57872131 -341.09379272 571.35959106 -341.89471436 572.16412354 C-344.46646546 574.74468005 -347.04546675 577.31784922 -349.625 579.890625 C-351.41126322 581.67823493 -353.19722942 583.46614171 -354.98291016 585.2543335 C-358.72559598 588.99996874 -362.47178222 592.74205426 -366.22070312 596.48144531 C-370.5586317 600.80847416 -374.88928679 605.14268249 -379.21626472 609.48065972 C-383.37749645 613.65204637 -387.54431875 617.81781312 -391.71356201 621.98119354 C-393.48853589 623.75482922 -395.26201419 625.52996285 -397.03399658 627.30658722 C-399.50485026 629.78249268 -401.98197678 632.25194188 -404.4609375 634.71972656 C-405.19866394 635.46150146 -405.93639038 636.20327637 -406.69647217 636.9675293 C-407.3694635 637.63488098 -408.04245483 638.30223267 -408.73583984 638.98980713 C-409.32134613 639.57455936 -409.90685242 640.1593116 -410.51010132 640.7617836 C-412 642 -412 642 -414 642 C-413.3408553 636.03257728 -411.80474305 630.53135691 -410.05859375 624.796875 C-409.77146011 623.83726868 -409.48432648 622.87766235 -409.18849182 621.88897705 C-408.27622385 618.84120758 -407.3575348 615.79543316 -406.4375 612.75 C-405.51422394 609.69019155 -404.59246571 606.62997091 -403.67579651 603.56817627 C-403.10661412 601.66720946 -402.5336074 599.76738267 -401.95640564 597.86883545 C-401.69936356 597.0107428 -401.44232147 596.15265015 -401.17749023 595.26855469 C-400.94956284 594.51467468 -400.72163544 593.76079468 -400.48680115 592.98406982 C-399.88085634 590.85488876 -399.88085634 590.85488876 -400 588 C-399.34 588 -398.68 588 -398 588 C-398.061875 587.175 -398.12375 586.35 -398.1875 585.5 C-397.99938789 581.98857388 -397.08842824 579.42846602 -395.82467651 576.17959595 C-394.4985598 572.6747082 -393.43105261 569.09763822 -392.34765625 565.51171875 C-392.09633942 564.68693527 -391.84502258 563.86215179 -391.58609009 563.01237488 C-390.74197569 560.23829369 -389.90205844 557.46296319 -389.0625 554.6875 C-388.44573853 552.65445383 -387.82895729 550.62141366 -387.2121582 548.58837891 C-380.05412335 524.96433215 -373.00382192 501.30785781 -365.96084785 477.64930916 C-362.91222932 467.40863249 -359.85610785 457.17022803 -356.79314518 446.93383217 C-354.46632256 439.15751246 -352.14223717 431.38037816 -349.81996822 423.60269737 C-348.39590448 418.83377551 -346.97040477 414.06529293 -345.54159546 409.29779053 C-344.19632113 404.80881106 -342.85490548 400.31869657 -341.51640129 395.82769394 C-341.01943733 394.16280287 -340.52104097 392.49833863 -340.02115059 390.83432388 C-339.33616155 388.55341918 -338.65622406 386.27106826 -337.97753906 383.98828125 C-337.77514461 383.31870832 -337.57275015 382.6491354 -337.36422253 381.95927238 C-336.54465137 379.18557176 -336 376.91242411 -336 374 C-335.34 374 -334.68 374 -334 374 C-333.91123093 373.46782867 -333.82246185 372.93565735 -333.73100281 372.38735962 C-332.19325029 363.95661447 -329.68354093 355.83746694 -327.20703125 347.6484375 C-326.71097154 345.9956802 -326.21534333 344.34279333 -325.72010803 342.68978882 C-324.65081563 339.12359705 -323.57876247 335.5582514 -322.50457764 331.99353027 C-320.79173894 326.30873506 -319.08590947 320.62185197 -317.38134766 314.93457031 C-315.23992694 307.79103711 -313.0973471 300.64785412 -310.95301056 293.50519562 C-304.63006546 272.44335569 -298.32179858 251.37713216 -292.02910328 230.30623436 C-289.9323134 223.28572554 -287.83159119 216.26640955 -285.72787762 209.24797249 C-284.4139637 204.86143312 -283.1034867 200.47387264 -281.79397392 196.08601761 C-281.1805686 194.03315619 -280.56574783 191.98071714 -279.94944954 189.92872238 C-279.10688092 187.12254177 -278.26935734 184.31490429 -277.43310547 181.50683594 C-277.18402341 180.68163641 -276.93494135 179.85643688 -276.67831135 179.00623131 C-275.76096459 175.91039278 -275 173.24746663 -275 170 C-274.34 170 -273.68 170 -273 170 C-272.67 166.7 -272.34 163.4 -272 160 C-271.34 160 -270.68 160 -270 160 C-269.80948059 158.47002129 -269.80948059 158.47002129 -269.6151123 156.90913391 C-269.04398975 153.27956165 -268.22143784 149.96584129 -267.15820312 146.45385742 C-266.78111206 145.19953415 -266.404021 143.94521088 -266.01550293 142.65287781 C-265.60424819 141.30369179 -265.19282663 139.95455661 -264.78125 138.60546875 C-264.35869678 137.20790799 -263.93654329 135.8102263 -263.51477051 134.41242981 C-262.63356144 131.49576159 -261.74903137 128.58013001 -260.86181641 125.6652832 C-259.72382581 121.92633179 -258.59192619 118.18557225 -257.46219635 114.44411755 C-256.5921932 111.56381099 -255.72016541 108.68412095 -254.84739685 105.80465126 C-254.42919711 104.42482635 -254.01135901 103.04489178 -253.59388733 101.66484642 C-253.01174728 99.7423809 -252.42683979 97.82075403 -251.84179688 95.89916992 C-251.50950073 94.80553635 -251.17720459 93.71190277 -250.83483887 92.58512878 C-250 90 -250 90 -249 88 C-246.91731262 87.10050964 -246.91731262 87.10050964 -244.13989258 86.17651367 C-243.10611984 85.82704178 -242.07234711 85.47756989 -241.00724792 85.11750793 C-239.87692642 84.742285 -238.74660492 84.36706207 -237.58203125 83.98046875 C-235.18107328 83.16670175 -232.78086457 82.35072126 -230.38134766 81.53271484 C-229.14902405 81.11278259 -227.91670044 80.69285034 -226.64703369 80.26019287 C-221.11553794 78.34884461 -215.62416531 76.334596 -210.13671875 74.30078125 C-208.5222435 73.70316483 -208.5222435 73.70316483 -206.87515259 73.09347534 C-204.63994369 72.26501602 -202.40503423 71.4357484 -200.17041016 70.60571289 C-193.98488746 68.30901349 -187.79562147 66.02246599 -181.60546875 63.73828125 C-180.9649696 63.5018906 -180.32447044 63.26549995 -179.66456223 63.02194595 C-164.97166294 57.60170616 -150.23796873 52.2961825 -135.5 47 C-114.14539625 39.3251915 -92.83262237 31.54615123 -71.54846191 23.67782593 C-54.53221495 17.38806737 -37.49117191 11.1752605 -20.40283203 5.08398438 C-19.28374954 4.68478035 -19.28374954 4.68478035 -18.14205933 4.2775116 C-16.78103498 3.79236625 -15.4196766 3.30815634 -14.05789185 2.82514954 C-11.42756161 1.88853258 -8.85557811 0.93446457 -6.31152344 -0.2199707 C-3.5042569 -1.16728974 -2.74127025 -1.0900592 0 0 Z " fill="#FCFBFB" transform="translate(414,127)"/>
<path d="M0 0 C4.67767544 3.90848538 9.11152485 7.96975397 13.40673828 12.29321289 C14.00445038 12.89077896 14.60216248 13.48834503 15.21798706 14.10401917 C17.17114528 16.05786766 19.12074673 18.01522374 21.0703125 19.97265625 C22.43816526 21.34237749 23.80624149 22.71187559 25.17453003 24.0811615 C28.76192624 27.67235861 32.346311 31.26654663 35.93005371 34.86138916 C39.57265241 38.51421817 43.21807969 42.16422186 46.86328125 45.81445312 C52.75111287 51.71105142 58.6372381 57.60934645 64.52105713 63.50994873 C67.67815989 66.67585206 70.83791026 69.83907557 74 73 C75.39142033 74.39137589 76.78281553 75.78277692 78.17419434 77.17419434 C78.97318649 77.97318649 79.77217865 78.77217865 80.59538269 79.59538269 C108.67219035 107.67219035 136.74899801 135.74899801 164.82580566 163.82580566 C165.55733353 164.55700623 166.28886139 165.28820679 167.04255676 166.04156494 C168.23424713 167.23385913 169.42487137 168.42722179 170.61357117 169.62249756 C172.82922272 171.84957116 175.06264501 173.95427483 177.5 175.9375 C179.83122255 177.89876767 181.8357045 179.88019442 183.75 182.25 C185.88779286 185.13659999 185.88779286 185.13659999 189 187 C189 187.66 189 188.32 189 189 C189.66 189 190.32 189 191 189 C191 189.66 191 190.32 191 191 C191.66 191 192.32 191 193 191 C195.125 192.875 195.125 192.875 197 195 C197 195.66 197 196.32 197 197 C197.66 197 198.32 197 199 197 C200.48046875 198.5390625 200.48046875 198.5390625 202.1875 200.625 C205.03236124 203.98442034 207.99133198 206.78176185 211.3828125 209.5703125 C213.88531695 211.7826715 215.86451523 214.43741828 218 217 C219.72323699 218.56766699 221.49596807 220.05913859 223.28515625 221.55078125 C225.68867394 223.58200007 227.87245297 225.6790396 230 228 C230 228.66 230 229.32 230 230 C231.32 230.66 232.64 231.32 234 232 C234 232.66 234 233.32 234 234 C234.55268555 234.22816406 235.10537109 234.45632812 235.67480469 234.69140625 C238.67246403 236.37845518 240.7676506 238.50812518 243.203125 240.9375 C243.6857782 241.41823975 244.1684314 241.89897949 244.66571045 242.39428711 C245.67999064 243.40721093 246.69176804 244.42264638 247.70117188 245.44042969 C249.25171972 247.00173165 250.81270503 248.55202497 252.375 250.1015625 C253.36001734 251.08790061 254.34441453 252.0748585 255.328125 253.0625 C256.2243457 253.96097656 257.12056641 254.85945312 258.04394531 255.78515625 C260 258 260 258 260 260 C260.66 260 261.32 260 262 260 C262 260.66 262 261.32 262 262 C262.66 262 263.32 262 264 262 C264 262.66 264 263.32 264 264 C264.66 264 265.32 264 266 264 C266 264.66 266 265.32 266 266 C266.66 266 267.32 266 268 266 C268 266.66 268 267.32 268 268 C268.58426758 268.25974609 269.16853516 268.51949219 269.77050781 268.78710938 C272.15561164 270.084656 273.75190637 271.49341122 275.671875 273.40625 C276.33574219 274.06753906 276.99960937 274.72882813 277.68359375 275.41015625 C278.36550781 276.09980469 279.04742188 276.78945313 279.75 277.5 C280.79607422 278.53447266 280.79607422 278.53447266 281.86328125 279.58984375 C282.52199219 280.25113281 283.18070313 280.91242188 283.859375 281.59375 C284.46233398 282.19896484 285.06529297 282.80417969 285.68652344 283.42773438 C287 285 287 285 287 287 C285.61894226 288.14631653 285.61894226 288.14631653 283.64331055 289.42895508 C282.89960709 289.91687027 282.15590363 290.40478546 281.3896637 290.90748596 C280.56369186 291.43946091 279.73772003 291.97143585 278.88671875 292.51953125 C278.02630478 293.08200058 277.16589081 293.64446991 276.27940369 294.22398376 C274.40466516 295.4488324 272.52792769 296.6706255 270.6494751 297.88977051 C265.62268498 301.15284912 260.61059317 304.43835073 255.59765625 307.72265625 C254.56078674 308.4012973 253.52391724 309.07993835 252.45562744 309.77914429 C239.64562387 318.17652208 226.96867783 326.77011172 214.29174805 335.36645508 C204.93852481 341.70365282 195.5444257 347.95395301 186 354 C185.01 353.34 184.02 352.68 183 352 C183 351.34 183 350.68 183 350 C182.44368896 349.76966064 181.88737793 349.53932129 181.31420898 349.30200195 C178.36889304 347.64493159 176.34827939 345.57222713 173.97265625 343.16796875 C173.50186142 342.69434402 173.03106659 342.2207193 172.54600525 341.73274231 C171.0467211 340.22231245 169.5545342 338.70508851 168.0625 337.1875 C167.0636171 336.17857482 166.06427249 335.17010655 165.06445312 334.16210938 C163.21462839 332.29601596 161.36812679 330.42685112 159.52368164 328.55541992 C157.02612252 326.02645104 154.51447892 323.51213186 152 321 C151.05756656 320.04789065 150.11594727 319.09497339 149.17578125 318.140625 C148.22136663 317.17707098 147.26693948 316.21352938 146.3125 315.25 C145.82716797 314.75628906 145.34183594 314.26257813 144.84179688 313.75390625 C142.18159783 311.03384724 142.18159783 311.03384724 139 309 C139 308.34 139 307.68 139 307 C138.34 307 137.68 307 137 307 C135.703125 305.64453125 135.703125 305.64453125 134.25 303.8125 C132.19609956 301.31341917 130.16157864 299.19512386 127.625 297.1875 C126.325625 296.1046875 126.325625 296.1046875 125 295 C125 294.34 125 293.68 125 293 C124.34 293 123.68 293 123 293 C123 292.34 123 291.68 123 291 C122.34 291 121.68 291 121 291 C119.63823078 289.35648543 118.31037934 287.68477344 117 286 C115.34693935 284.3198375 113.67855564 282.65469228 112 281 C110.32168279 279.31706947 108.64372239 277.63378305 106.96606445 275.95019531 C102.15503015 271.12290683 97.34152166 266.29809381 92.52654743 261.47473526 C89.62013837 258.56308226 86.71468337 255.65048957 83.8112793 252.73583984 C80.99369178 249.90741393 78.17369188 247.08141432 75.35198021 244.25710297 C74.2781795 243.18145303 73.20526008 242.10492259 72.13323402 241.02750397 C70.63971148 239.52675624 69.14312324 238.02913281 67.64575195 236.53222656 C66.79479446 235.67904846 65.94383698 234.82587036 65.0670929 233.94683838 C63.15199897 231.95613414 63.15199897 231.95613414 61 231 C61 230.34 61 229.68 61 229 C60.34 229 59.68 229 59 229 C59 228.34 59 227.68 59 227 C58.34 227 57.68 227 57 227 C57 226.34 57 225.68 57 225 C56.34 225 55.68 225 55 225 C53.61030579 223.59153748 53.61030579 223.59153748 51.97387695 221.60717773 C47.69726852 216.58175781 43.08757729 211.94370191 38.41796875 207.28515625 C37.52257889 206.38880966 36.62718903 205.49246307 35.70466614 204.56895447 C33.82589224 202.68950398 31.94616009 200.81107813 30.06469727 198.93432617 C27.65258227 196.52795724 25.24505193 194.11705876 22.83878613 191.70484257 C20.53426977 189.39585567 18.2259604 187.09066856 15.91796875 184.78515625 C15.05342575 183.91858902 14.18888275 183.05202179 13.29814148 182.15919495 C12.50003555 181.36424118 11.70192963 180.56928741 10.87963867 179.75024414 C10.17683273 179.0482338 9.47402679 178.34622345 8.74992371 177.62294006 C7.0825321 175.92446915 7.0825321 175.92446915 5 175 C5 174.34 5 173.68 5 173 C4.34 173 3.68 173 3 173 C3 172.34 3 171.68 3 171 C2.34 171 1.68 171 1 171 C1 170.34 1 169.68 1 169 C0.34 169 -0.32 169 -1 169 C-1 168.34 -1 167.68 -1 167 C-1.66 167 -2.32 167 -3 167 C-3 166.34 -3 165.68 -3 165 C-3.66 165 -4.32 165 -5 165 C-5 164.34 -5 163.68 -5 163 C-5.66 163 -6.32 163 -7 163 C-7 162.34 -7 161.68 -7 161 C-7.66 161 -8.32 161 -9 161 C-10.43583679 159.5453949 -10.43583679 159.5453949 -12.1081543 157.52514648 C-15.96010508 152.99821724 -20.06228476 148.79312635 -24.26953125 144.59765625 C-25.03174484 143.83448593 -25.79395844 143.07131561 -26.57926941 142.28501892 C-28.17556068 140.68805211 -29.77309553 139.09232747 -31.37182617 137.49780273 C-33.82652823 135.04850264 -36.27578896 132.59385096 -38.72460938 130.13867188 C-40.28092907 128.5830122 -41.83755852 127.02766234 -43.39453125 125.47265625 C-44.12783157 124.7373317 -44.8611319 124.00200714 -45.61665344 123.24440002 C-46.29463486 122.56957077 -46.97261627 121.89474152 -47.67114258 121.19946289 C-48.56546745 120.30633141 -48.56546745 120.30633141 -49.4778595 119.39515686 C-50.96693227 117.90208655 -50.96693227 117.90208655 -53 117 C-53 116.34 -53 115.68 -53 115 C-53.66 115 -54.32 115 -55 115 C-55 114.34 -55 113.68 -55 113 C-55.66 113 -56.32 113 -57 113 C-57 112.34 -57 111.68 -57 111 C-57.66 111 -58.32 111 -59 111 C-59 110.34 -59 109.68 -59 109 C-59.66 109 -60.32 109 -61 109 C-61 108.34 -61 107.68 -61 107 C-61.66 107 -62.32 107 -63 107 C-63 106.34 -63 105.68 -63 105 C-63.99 104.67 -64.98 104.34 -66 104 C-66.87109375 102.25 -66.87109375 102.25 -67 100 C-65.84765625 97.625 -65.84765625 97.625 -64.0625 95 C-63.4128125 94.02933594 -62.763125 93.05867188 -62.09375 92.05859375 C-61.05734375 90.54458984 -61.05734375 90.54458984 -60 89 C-58.68629967 87.02162986 -57.37380138 85.04246102 -56.0625 83.0625 C-54.70892715 81.04126887 -53.35475861 79.02043654 -52 77 C-50.66606667 75.00040013 -49.33273141 73.00040115 -48 71 C-46.07865197 68.11773119 -44.15712152 65.23558447 -42.23510742 62.35375977 C-38.88636257 57.3322172 -35.53987324 52.30919815 -32.19749451 47.28341675 C-13.9441807 19.83841891 -13.9441807 19.83841891 -6.1875 8.5 C-5.6613208 7.73034912 -5.1351416 6.96069824 -4.59301758 6.16772461 C-1.13494198 1.13494198 -1.13494198 1.13494198 0 0 Z " fill="#FCFBFB" transform="translate(508,1)"/>
<path d="" fill="#000000" transform="translate(0,0)"/>
<path d="" fill="#000000" transform="translate(0,0)"/>
<path d="" fill="#000000" transform="translate(0,0)"/>
<path d="" fill="#000000" transform="translate(0,0)"/>
<path d="" fill="#000000" transform="translate(0,0)"/>
<path d="" fill="#000000" transform="translate(0,0)"/>
<path d="" fill="#000000" transform="translate(0,0)"/>
<path d="" fill="#000000" transform="translate(0,0)"/>
<path d="" fill="#000000" transform="translate(0,0)"/>
<path d="" fill="#000000" transform="translate(0,0)"/>
<path d="" fill="#000000" transform="translate(0,0)"/>
<path d="" fill="#000000" transform="translate(0,0)"/>
<path d="" fill="#000000" transform="translate(0,0)"/>
<path d="" fill="#000000" transform="translate(0,0)"/>
<path d="" fill="#000000" transform="translate(0,0)"/>
<path d="" fill="#000000" transform="translate(0,0)"/>
<path d="" fill="#000000" transform="translate(0,0)"/>
<path d="" fill="#000000" transform="translate(0,0)"/>
<path d="" fill="#000000" transform="translate(0,0)"/>
<path d="" fill="#000000" transform="translate(0,0)"/>
<path d="" fill="#000000" transform="translate(0,0)"/>
<path d="" fill="#000000" transform="translate(0,0)"/>
<path d="" fill="#000000" transform="translate(0,0)"/>
<path d="" fill="#000000" transform="translate(0,0)"/>
<path d="" fill="#000000" transform="translate(0,0)"/>
<path d="" fill="#000000" transform="translate(0,0)"/>
<path d="" fill="#000000" transform="translate(0,0)"/>
<path d="" fill="#000000" transform="translate(0,0)"/>
<path d="" fill="#000000" transform="translate(0,0)"/>
<path d="" fill="#000000" transform="translate(0,0)"/>
<path d="" fill="#000000" transform="translate(0,0)"/>
<path d="" fill="#000000" transform="translate(0,0)"/>
<path d="" fill="#000000" transform="translate(0,0)"/>
<path d="" fill="#000000" transform="translate(0,0)"/>
<path d="" fill="#000000" transform="translate(0,0)"/>
<path d="" fill="#000000" transform="translate(0,0)"/>
<path d="" fill="#000000" transform="translate(0,0)"/>
<path d="" fill="#000000" transform="translate(0,0)"/>
<path d="" fill="#000000" transform="translate(0,0)"/>
<path d="" fill="#000000" transform="translate(0,0)"/>
<path d="" fill="#000000" transform="translate(0,0)"/>
<path d="" fill="#000000" transform="translate(0,0)"/>
<path d="" fill="#000000" transform="translate(0,0)"/>
<path d="" fill="#000000" transform="translate(0,0)"/>
<path d="" fill="#000000" transform="translate(0,0)"/>
<path d="" fill="#000000" transform="translate(0,0)"/>
<path d="" fill="#000000" transform="translate(0,0)"/>
<path d="" fill="#000000" transform="translate(0,0)"/>
<path d="" fill="#000000" transform="translate(0,0)"/>
<path d="" fill="#000000" transform="translate(0,0)"/>
<path d="" fill="#000000" transform="translate(0,0)"/>
<path d="" fill="#000000" transform="translate(0,0)"/>
<path d="" fill="#000000" transform="translate(0,0)"/>
<path d="" fill="#000000" transform="translate(0,0)"/>
<path d="" fill="#000000" transform="translate(0,0)"/>
<path d="" fill="#000000" transform="translate(0,0)"/>
</svg>
