<?xml version="1.0" encoding="UTF-8"?>
<svg version="1.1" xmlns="http://www.w3.org/2000/svg" width="800" height="584">
<path d="M0 0 C1.12477708 -0.00551503 1.12477708 -0.00551503 2.27227694 -0.01114148 C4.78069184 -0.02213936 7.28906525 -0.02601558 9.79750061 -0.02983093 C11.59816112 -0.03609872 13.39882033 -0.0427458 15.19947815 -0.04974365 C21.11113082 -0.07075587 27.02278366 -0.08114611 32.9344635 -0.09111023 C34.97382178 -0.0951594 37.01317992 -0.09927637 39.05253792 -0.10346031 C48.63883367 -0.12250887 58.22512175 -0.13673838 67.81143278 -0.14507228 C78.85372225 -0.1548318 89.89581058 -0.18111918 100.93802923 -0.22157317 C109.48689975 -0.2518104 118.03571287 -0.26654851 126.58463579 -0.26985329 C131.68350792 -0.27219586 136.78216509 -0.28105201 141.88097954 -0.30631447 C146.68519435 -0.32973242 151.4890548 -0.33377368 156.29331207 -0.32355309 C158.04674781 -0.32306087 159.80020181 -0.32928741 161.55358315 -0.34310913 C181.92972437 -0.49461029 198.37120453 4.83468981 213.46961975 19.14717102 C220.67580852 27.52895075 225.7629503 36.75560157 230.78211975 46.52217102 C231.52541691 47.94811646 232.26998251 49.37340137 233.01576233 50.79804993 C234.13301504 52.93252051 235.2496299 55.06728623 236.36230469 57.20414734 C239.38933676 63.01634053 242.50025648 68.77942965 245.65711975 74.52217102 C250.67611415 83.67578228 255.63499343 92.86081004 260.57582092 102.05683899 C261.12600891 103.08051575 261.6761969 104.1041925 262.24305725 105.15888977 C262.7751178 106.15066223 263.30717834 107.14243469 263.85536194 108.16426086 C264.96392703 110.21272551 266.08507915 112.2544131 267.21669006 114.29023743 C267.76679749 115.28072083 268.31690491 116.27120422 268.88368225 117.29170227 C269.62932434 118.62165222 269.62932434 118.62165222 270.39002991 119.97846985 C271.46961975 122.14717102 271.46961975 122.14717102 271.46961975 124.14717102 C272.22793091 124.14348385 272.98624207 124.13979668 273.76753235 124.13599777 C292.28275976 124.0473721 310.79794441 123.98132849 329.31333923 123.93992233 C338.26752883 123.91936255 347.22157619 123.89136909 356.17567444 123.84541321 C363.98687086 123.8053425 371.79796419 123.77969046 379.60926056 123.77081704 C383.73915382 123.76563626 387.86875233 123.75359983 391.99855042 123.72425079 C395.89903496 123.6967604 399.79910809 123.6887925 403.69968033 123.6947403 C405.11848322 123.69365486 406.53730231 123.68590341 407.95602036 123.67034912 C421.01021874 123.53445203 434.13894706 125.6033167 445.78211975 131.83467102 C446.44034729 132.17860901 447.09857483 132.522547 447.77674866 132.87690735 C465.11592195 142.25715052 476.86351116 157.86459899 482.60193634 176.62754917 C484.65461716 184.02215758 485.03164616 190.88387378 484.97755432 198.52362061 C484.98217637 199.91507731 484.98853795 201.30652911 484.9964633 202.69797093 C485.01300144 206.47984733 485.00498202 210.26131461 484.99251842 214.04319155 C484.98340579 218.13804858 484.99746827 222.23283903 485.00843811 226.3276825 C485.02616258 234.33328531 485.02241041 242.33873755 485.01078755 250.3443461 C485.00172885 256.85514686 485.00053973 263.36590563 485.00488281 269.87671089 C485.00549574 270.80577993 485.00610868 271.73484896 485.00674018 272.69207161 C485.00801917 274.57987317 485.00931603 276.46767473 485.01063055 278.35547627 C485.02201872 296.03015653 485.00895069 313.70475361 484.98742908 331.37942023 C484.96956267 346.52055133 484.97266188 361.66155972 484.99110413 376.8026886 C485.01254714 394.41552039 485.02091715 412.02827938 485.00865507 429.6411224 C485.00738097 431.52202005 485.00612349 433.40291771 485.00488281 435.28381538 C485.00426571 436.20908003 485.00364861 437.13434468 485.00301281 438.08764766 C484.99956997 444.5844856 485.00536524 451.08127709 485.01480103 457.57810783 C485.02606073 465.50448223 485.02289806 473.43069833 485.00167805 481.35705476 C484.99122032 485.39545523 484.98695469 489.43359252 485.00027466 493.47199059 C485.01231529 497.17879685 485.00544734 500.88509944 484.98436445 504.5918609 C484.97787693 506.54653515 484.99072939 508.50124521 485.00459337 510.45588106 C484.8370411 529.65327368 477.8034668 546.89726624 464.254776 560.49482727 C447.25466626 576.68427259 428.08066337 582.32145361 405.02856827 582.27580547 C403.33721331 582.27843503 403.33721331 582.27843503 401.61168957 582.28111771 C397.83004738 582.28577286 394.04844372 582.28331343 390.26679993 582.28088379 C387.52942896 582.2822004 384.79205998 582.28501291 382.05469012 582.28774911 C376.1012761 582.29289603 370.14787022 582.29432154 364.19445419 582.293293 C355.3412787 582.29176722 346.4881122 582.29593171 337.63493845 582.30116763 C320.90256893 582.31083701 304.17020247 582.31365171 287.43783048 582.31422468 C274.51624406 582.31468427 261.59465884 582.31674284 248.67307281 582.31992531 C244.95326702 582.32082285 241.23346122 582.32171267 237.51365542 582.32260019 C236.58889517 582.32282123 235.66413491 582.32304228 234.71135162 582.32327003 C208.70071692 582.32942394 182.69008263 582.33337062 156.67944717 582.33292675 C155.20855133 582.33290338 155.20855133 582.33290338 153.70794042 582.33287954 C148.73789265 582.33279643 143.76784488 582.33269739 138.79779711 582.33259483 C137.8107318 582.33257489 136.82366649 582.33255494 135.8066901 582.33253439 C133.81060382 582.33249396 131.81451754 582.33245216 129.81843125 582.332409 C98.76140086 582.33179623 67.70438139 582.33930339 36.64735413 582.35298157 C1.75310802 582.36834342 -33.1411309 582.37694774 -68.0353806 582.37601835 C-71.75644382 582.37594371 -75.47750703 582.37589501 -79.19857025 582.37586403 C-80.11478717 582.37585237 -81.03100408 582.37584072 -81.97498515 582.37582871 C-96.71629116 582.37579795 -111.45758768 582.38218252 -126.19889087 582.39079629 C-141.01500567 582.39927471 -155.8311066 582.40026123 -170.64722249 582.39368697 C-179.44726265 582.38999266 -188.24726067 582.39182016 -197.04729636 582.40162931 C-202.92943008 582.40763156 -208.81153331 582.40633112 -214.69366564 582.39915881 C-218.04249286 582.39527938 -221.3911722 582.39560566 -224.74000415 582.40261617 C-228.3553986 582.40968311 -231.970577 582.40437698 -235.5859642 582.39605999 C-236.61452577 582.40102817 -237.64308734 582.40599635 -238.70281744 582.41111508 C-259.9375773 582.30803694 -279.53241657 576.04593618 -294.81163025 560.95576477 C-309.6809762 545.59504675 -316.01932065 528.34728808 -315.9180603 507.00450134 C-315.92224242 505.6140603 -315.92772472 504.22362268 -315.93438011 502.83319128 C-315.94873842 499.04493247 -315.94462042 495.256893 -315.9372133 491.46862268 C-315.93245992 487.37034767 -315.94501057 483.27211864 -315.95523071 479.17385864 C-315.97238171 471.15764902 -315.97326643 463.1415179 -315.96801781 455.1252947 C-315.96396797 448.60633744 -315.96542932 442.08740328 -315.97076607 435.56844711 C-315.97151449 434.63881837 -315.97226291 433.70918964 -315.97303401 432.75139033 C-315.97456557 430.86253997 -315.97610392 428.97368962 -315.97764898 427.08483927 C-315.99136064 409.39209338 -315.98594572 391.69939178 -315.97446377 374.00664692 C-315.96453281 357.84080775 -315.97747207 341.67508307 -316.00139796 325.50926156 C-316.02581393 308.88631975 -316.03539069 292.2634312 -316.02874523 275.64047182 C-316.02525856 266.31749223 -316.02744855 256.99460065 -316.04499626 247.67163467 C-316.05974951 239.7353096 -316.06031299 231.79913452 -316.04292535 223.8628123 C-316.03443861 219.81846841 -316.03220841 215.77439211 -316.0475769 211.73006248 C-316.06150401 208.01891964 -316.05655934 204.30827161 -316.03733767 200.59715681 C-316.03184861 198.63766472 -316.04578193 196.67814692 -316.06069177 194.71870387 C-315.89724287 174.82731439 -307.59335542 156.9858116 -293.53038025 143.14717102 C-281.05300076 131.90212531 -264.68125528 124.07936083 -247.65538025 123.95967102 C-246.62413025 124.02154602 -245.59288025 124.08342102 -244.53038025 124.14717102 C-244.44788025 123.11592102 -244.36538025 122.08467102 -244.28038025 121.02217102 C-243.03706957 114.5983992 -239.8128033 110.84486716 -234.53038025 107.14717102 C-230.24047751 104.32433407 -225.32202221 104.82202771 -220.37413025 104.84443665 C-217.9908783 104.82400366 -217.9908783 104.82400366 -214.53038025 104.14717102 C-212.30237186 101.78409308 -212.30237186 101.78409308 -210.53038025 99.14717102 C-206.35603411 96.90133241 -202.26746912 96.82560634 -197.63194275 96.81123352 C-196.50216507 96.80124832 -196.50216507 96.80124832 -195.3495636 96.7910614 C-193.76109751 96.7809684 -192.17258931 96.77624334 -190.58409119 96.77656555 C-188.16963419 96.77219681 -185.75701377 96.73585771 -183.34288025 96.69795227 C-181.79340728 96.69208222 -180.2439257 96.68811409 -178.69444275 96.68623352 C-177.98067474 96.67186249 -177.26690674 96.65749146 -176.5315094 96.64268494 C-171.02668302 96.69220204 -167.94654051 98.08776158 -163.53038025 101.14717102 C-162.59288025 103.39717102 -162.59288025 103.39717102 -162.53038025 105.14717102 C-161.39600525 105.08916321 -160.26163025 105.0311554 -159.09288025 104.97138977 C-144.31409738 104.43725638 -144.31409738 104.43725638 -139.042099 108.66670227 C-138.29379822 109.3995343 -138.29379822 109.3995343 -137.53038025 110.14717102 C-137.02120056 110.60478821 -136.51202087 111.0624054 -135.9874115 111.53388977 C-131.88486558 115.72836949 -132.33065466 117.74497574 -131.53038025 124.14717102 C-116.18538025 123.65217102 -116.18538025 123.65217102 -100.53038025 123.14717102 C-99.08663025 120.23904602 -97.64288025 117.33092102 -96.15538025 114.33467102 C-92.38122642 106.76658398 -88.51761151 99.25311108 -84.55967712 91.77973938 C-80.88579123 84.83900142 -77.26647435 77.87075873 -73.65538025 70.89717102 C-72.76520203 69.18183167 -72.76520203 69.18183167 -71.85704041 67.43183899 C-68.97239185 61.87200644 -66.09815021 56.30738331 -63.24913025 50.72920227 C-51.78092942 28.35174593 -40.67507695 10.45284284 -15.6592865 2.05732727 C-10.36376384 0.51693179 -5.5051782 -0.00145886 0 0 Z M-62.55235291 200.02558899 C-66.97287984 204.76693422 -70.88882271 209.78244196 -74.53038025 215.14717102 C-74.99073669 215.81732239 -75.45109314 216.48747375 -75.92539978 217.17793274 C-92.47513566 241.53692208 -103.46535689 268.15701125 -108.53038025 297.14717102 C-108.75596619 298.3408429 -108.98155212 299.53451477 -109.213974 300.76435852 C-116.94631204 349.50475142 -103.91650064 402.45258071 -75.02696228 442.28242493 C-62.32605298 459.27880566 -47.75245754 474.69479446 -30.53038025 487.14717102 C-29.94707947 487.56950012 -29.36377869 487.99182922 -28.76280212 488.42695618 C12.68053877 518.03096725 64.6719791 529.94634056 114.942276 522.11982727 C165.58791336 513.51122623 210.75936005 486.47316525 241.46961975 445.14717102 C242.093526 444.31830383 242.71743225 443.48943665 243.36024475 442.63545227 C273.58829291 401.03657291 285.42447495 348.19500706 277.43836975 297.52607727 C271.90741776 265.67167921 259.3733133 235.71248002 239.46961975 210.14717102 C238.80760559 209.29469788 238.80760559 209.29469788 238.13221741 208.42500305 C205.81328075 167.40995265 159.52826591 142.10612466 108.04627991 134.80342102 C42.39896916 127.2031535 -17.63381237 153.08396145 -62.55235291 200.02558899 Z M384.11805725 185.77607727 C378.22545046 193.47781773 377.57866741 201.67375376 378.46961975 211.14717102 C380.61582032 220.2974393 386.56998807 227.97388769 394.411026 233.10810852 C403.25795106 237.57353938 412.04443132 237.92973293 421.46961975 235.14717102 C430.56097746 231.24906094 437.15643967 225.00880836 440.90711975 215.83467102 C443.66455844 207.18037211 443.35181414 199.27402674 439.9188385 190.85420227 C435.33556978 182.2930022 428.59993298 176.39719974 419.46961975 173.14717102 C405.31354135 169.80745694 393.31689997 174.68961075 384.11805725 185.77607727 Z " fill="#FEFEFC" transform="translate(315.53038024902344,-0.1471710205078125)"/>
<path d="M0 0 C0.89332031 0.67289063 1.78664063 1.34578125 2.70703125 2.0390625 C32.89867073 25.795002 50.89465382 58.72880332 55.6875 96.8125 C58.71078278 135.92220071 47.23298788 171.65952255 21.87890625 201.49609375 C-2.71977467 229.60260796 -36.9192831 245.37029144 -74 248 C-109.84805024 249.87645192 -145.42197633 237.43019169 -172.14550781 213.52978516 C-200.0464581 187.92531028 -216.49947104 153.68667409 -218.21875 115.7421875 C-219.30155871 78.82825434 -205.69985877 43.42083096 -180.7109375 16.39453125 C-159.29618146 -6.10823009 -131.62197875 -20.1324494 -101 -25 C-100.19175781 -25.13148438 -99.38351562 -25.26296875 -98.55078125 -25.3984375 C-64.18700187 -29.83634269 -27.69525279 -20.94738104 0 0 Z " fill="#FEFEFC" transform="translate(481,218)"/>
<path d="" fill="#000000" transform="translate(0,0)"/>
<path d="" fill="#000000" transform="translate(0,0)"/>
<path d="" fill="#000000" transform="translate(0,0)"/>
<path d="" fill="#000000" transform="translate(0,0)"/>
<path d="" fill="#000000" transform="translate(0,0)"/>
<path d="" fill="#000000" transform="translate(0,0)"/>
<path d="" fill="#000000" transform="translate(0,0)"/>
<path d="" fill="#000000" transform="translate(0,0)"/>
<path d="" fill="#000000" transform="translate(0,0)"/>
<path d="" fill="#000000" transform="translate(0,0)"/>
<path d="" fill="#000000" transform="translate(0,0)"/>
<path d="" fill="#000000" transform="translate(0,0)"/>
<path d="" fill="#000000" transform="translate(0,0)"/>
<path d="" fill="#000000" transform="translate(0,0)"/>
<path d="" fill="#000000" transform="translate(0,0)"/>
<path d="" fill="#000000" transform="translate(0,0)"/>
<path d="" fill="#000000" transform="translate(0,0)"/>
<path d="" fill="#000000" transform="translate(0,0)"/>
</svg>
