<?xml version="1.0" encoding="UTF-8"?>
<svg version="1.1" xmlns="http://www.w3.org/2000/svg" width="800" height="560">
<path d="M0 0 C8.5281775 6.70602329 14.3154692 15.42493998 16.0625 26.25 C16.7878754 33.50375397 16.11491597 40.01632022 13.94663906 46.96199894 C13.72422821 47.69482206 13.50181735 48.42764518 13.27266678 49.18267507 C10.50869351 58.20495898 7.52589769 67.1569396 4.54127502 76.10801697 C3.89339861 78.05826203 3.24577402 80.00859077 2.59837669 81.95899493 C0.83388436 87.27231292 -0.93427895 92.58440273 -2.70312321 97.89627326 C-4.61595386 103.6426297 -6.5253977 109.3901116 -8.43536377 115.13742065 C-12.82024575 128.32954928 -17.21021642 141.51998131 -21.60126874 154.71005693 C-23.77340813 161.23491404 -25.94494719 167.75997089 -28.11647104 174.28503288 C-35.55767511 196.64438535 -43.00060241 219.00316352 -50.44805813 241.36043453 C-50.91445274 242.76056787 -51.38084667 244.16070143 -51.84723992 245.56083522 C-52.07850934 246.25511623 -52.30977876 246.94939725 -52.54805634 247.66471709 C-53.71962668 251.1818303 -54.89118838 254.69894639 -56.06274414 258.21606445 C-56.29523546 258.9140187 -56.52772677 259.61197295 -56.76726328 260.33107733 C-64.31472033 282.98925432 -71.85283533 305.65052445 -79.38555376 328.31360519 C-87.36062851 352.30744147 -95.3444612 376.29834621 -103.33814675 400.28598887 C-104.21558332 402.91913362 -105.09298267 405.55229077 -105.97035408 408.18545723 C-106.18637167 408.83375637 -106.40238925 409.48205551 -106.62495282 410.15000008 C-110.09714009 420.57122098 -113.56133102 430.99508297 -117.02261678 441.41992903 C-120.50040467 451.89382223 -123.98726421 462.36466862 -127.48271494 472.83268224 C-129.37510683 478.50076007 -131.26359004 484.17006174 -133.14161873 489.84291649 C-134.86155349 495.0379182 -136.59256954 500.22908925 -138.33239842 505.41746099 C-138.95902277 507.29257238 -139.58160978 509.16903895 -140.19968729 511.0469849 C-143.28036678 520.39979869 -146.26775427 529.08865707 -151.9375 537.25 C-152.57864746 538.28181396 -153.21979492 539.31362793 -153.88037109 540.37670898 C-157.79885756 545.24962331 -160.86652858 547.35361682 -167.01660156 548.14892578 C-172.12806186 548.53647303 -177.21102995 548.51981795 -182.33300781 548.38891602 C-185.56352577 548.31247573 -188.78447954 548.32724415 -192.015625 548.35351562 C-194.08598988 548.33612761 -196.15631888 548.31351873 -198.2265625 548.28515625 C-199.1819693 548.2899147 -200.1373761 548.29467316 -201.12173462 548.29957581 C-207.51748465 548.07597174 -210.79969596 546.4754816 -215.36988831 541.99090576 C-223.18359 533.31342629 -226.72271216 522.58881695 -226.32938492 511.00282156 C-225.91305019 507.01586043 -224.99501577 503.3752176 -223.81577873 499.56422997 C-223.59397996 498.83016273 -223.3721812 498.0960955 -223.14366125 497.33978381 C-220.37756128 488.27195777 -217.38156013 479.27844356 -214.38504028 470.28482056 C-213.73375471 468.32291275 -213.0827179 466.36092234 -212.43190563 464.39885747 C-210.65794007 459.05326678 -208.88031068 453.70890096 -207.10199285 448.36475682 C-205.17894339 442.58360721 -203.2592532 436.80134203 -201.33901978 431.01925659 C-196.71196648 417.08928408 -192.0791017 403.16124778 -187.44516259 389.23356491 C-186.1356822 385.29776729 -184.82639604 381.36190508 -183.51715231 377.42602873 C-175.37717383 352.95559348 -167.23526169 328.48580247 -159.08760262 304.01792336 C-157.20502027 298.36433473 -155.32246606 292.71073674 -153.43994141 287.05712891 C-153.20608601 286.35482089 -152.9722306 285.65251287 -152.73128868 284.92892279 C-145.14068393 262.13277029 -137.56137396 239.33288365 -129.98846211 216.53084798 C-122.19144118 193.05417737 -114.38470958 169.58075993 -106.56514102 146.11158915 C-105.46057507 142.79641054 -104.35611129 139.4811979 -103.25170517 136.16596603 C-103.03437186 135.51358487 -102.81703854 134.8612037 -102.59311937 134.1890534 C-99.10088832 123.70534288 -95.61872754 113.2183144 -92.14025791 102.73003097 C-88.64449566 92.19041076 -85.13741288 81.65459898 -81.61961664 71.12230976 C-79.71544564 65.42017107 -77.81615966 59.71652719 -75.92996216 54.00841522 C-74.20207887 48.77978305 -72.46032124 43.5559873 -70.70756827 38.33564131 C-70.07718571 36.45009334 -69.45183717 34.56285301 -68.83215071 32.67376275 C-64.14880531 18.4108923 -59.13908632 4.29980189 -45.16015625 -3.25 C-30.11737974 -10.35745951 -13.89369185 -9.55073811 0 0 Z " fill="#FDFCFC" transform="translate(510.9375,12.75)"/>
<path d="M0 0 C10.42732528 6.52087834 18.31396064 15.76102776 21.6796875 27.67578125 C23.24717399 38.20548901 22.18877269 48.47733242 16.6796875 57.67578125 C10.11808257 65.87090384 2.33600981 73.15649187 -5.09204102 80.56103516 C-6.35465133 81.82336278 -7.61704026 83.08591187 -8.87922668 84.34866333 C-12.27717736 87.74689876 -15.67818366 91.14206061 -19.07978177 94.53664446 C-22.64499491 98.09557024 -26.20734172 101.65736284 -29.77000427 105.21884155 C-36.50381401 111.94955376 -43.24016686 118.67771465 -49.97745603 125.40494382 C-57.65302622 133.06930367 -65.32572824 140.73653208 -72.99820054 148.40399289 C-88.76906719 164.16443091 -104.54350017 179.92129524 -120.3203125 195.67578125 C-118.73249253 199.59716175 -116.03791068 202.21629304 -113.07098389 205.12524414 C-112.26010201 205.9323392 -112.26010201 205.9323392 -111.43283868 206.75573921 C-109.61973433 208.55808638 -107.79960284 210.35316806 -105.97949219 212.1484375 C-104.67813249 213.4394102 -103.37725619 214.73087035 -102.076828 216.02278137 C-99.27422626 218.80549565 -96.46875052 221.5852689 -93.66118622 224.36297607 C-89.21636212 228.76164949 -84.78132154 233.17009732 -80.34820557 237.58056641 C-67.74017257 250.12175971 -55.12413262 262.65481373 -42.48681641 275.16650391 C-35.50831366 282.07579766 -28.54070788 288.99588896 -21.58488584 295.92801762 C-17.90629213 299.5931091 -14.22228427 303.25236513 -10.52462006 306.89822388 C-7.04135256 310.33269465 -3.57247741 313.78107937 -0.11376381 317.24027061 C1.15235577 318.50157793 2.4235779 319.75778898 3.70044136 321.00821877 C14.02570656 331.12870799 21.85816643 341.01055937 22.0546875 356.11328125 C22.08262395 368.29843383 18.55505812 376.66825907 10.0078125 385.484375 C1.44649633 393.54292931 -6.36738063 397.25834716 -18.1953125 397.11328125 C-19.08009277 397.10353271 -19.96487305 397.09378418 -20.87646484 397.08374023 C-40.15571856 396.55917098 -51.5193335 380.63615244 -64.32324219 367.8815918 C-65.92070999 366.29367958 -67.51834544 364.70593599 -69.11613464 363.11834717 C-74.32869232 357.93695038 -79.53589934 352.75019543 -84.7421875 347.5625 C-85.63058728 346.67739754 -86.51898706 345.79229508 -87.43430805 344.88037133 C-95.82198452 336.52344275 -104.20770874 328.16455956 -112.58843613 319.80066204 C-114.5210043 317.87204222 -116.45359987 315.94344985 -118.38623047 314.01489258 C-118.8664718 313.53565961 -119.34671313 313.05642664 -119.84150723 312.56267146 C-127.62907224 304.79213021 -135.42862029 297.0337305 -143.23303232 289.28011372 C-151.26997511 281.29504636 -159.29519859 273.29837149 -167.31011319 265.29118186 C-171.8008682 260.80537255 -176.29649995 256.32472369 -180.80464935 251.85639 C-185.04336217 247.65463069 -189.26752229 243.4387636 -193.48116493 239.21186829 C-195.02467732 237.66840968 -196.57328681 236.13002795 -198.12747002 234.59731483 C-209.28283289 223.58781103 -218.48020429 213.76943196 -218.6953125 197.23828125 C-218.74020015 177.65946011 -205.95011449 167.19148913 -193.05310059 154.21749878 C-191.57477607 152.73314657 -190.09638015 151.24886547 -188.61791992 149.76464844 C-187.03985987 148.17703264 -185.46196838 146.58924928 -183.88423157 145.00131226 C-178.73529947 139.82122119 -173.58101098 134.64647899 -168.42578125 129.47265625 C-167.54618941 128.58976708 -166.66659756 127.70687792 -165.76035142 126.79723454 C-157.45532377 118.46145919 -149.14834111 110.1276358 -140.83634472 101.79880905 C-138.91975644 99.87827244 -137.00319564 97.95770842 -135.08666992 96.03710938 C-134.61042757 95.55985866 -134.13418521 95.08260794 -133.64351127 94.59089509 C-125.92146872 86.85182877 -118.21156828 79.10077986 -110.50645038 71.34486684 C-102.57110956 63.35764934 -94.62414355 55.3821358 -86.66668016 47.4169476 C-82.20881604 42.95413798 -77.75611246 38.48645333 -73.31572533 34.00624847 C-69.14023147 29.79379908 -64.95062886 25.59590612 -60.74999809 21.40852737 C-59.21621477 19.87469028 -57.68750755 18.33575671 -56.16447067 16.79124832 C-40.9012657 1.32453287 -22.03886135 -10.83628224 0 0 Z " fill="#FDFCFC" transform="translate(222.3203125,91.32421875)"/>
<path d="M0 0 C10.89093221 6.50470414 19.87730149 17.58763633 28.79190922 26.50561142 C30.38435779 28.09506326 31.97700968 29.68431144 33.56984806 31.27337265 C37.86926528 35.56400453 42.16547997 39.85782895 46.46082664 44.15253544 C49.14619549 46.83719144 51.83227597 49.52113329 54.51861095 52.20482254 C63.41127891 61.08873496 72.30189951 69.97468911 81.18981432 78.86335638 C81.6672654 79.34084742 82.14471648 79.81833846 82.63663578 80.31029892 C83.11467343 80.78837745 83.59271107 81.26645597 84.08523471 81.75902173 C91.85126151 89.52545594 99.62227947 97.28687485 107.39554178 105.04606655 C115.39223032 113.02839471 123.38509643 121.01453387 131.37426811 129.00438666 C135.85382436 133.48419797 140.33492287 137.9624396 144.81989193 142.43683243 C149.03093555 146.63821431 153.23717723 150.84434434 157.4397459 155.05420303 C158.98318648 156.59869139 160.5283407 158.14146943 162.07531834 159.68241501 C164.18471326 161.78411541 166.28786612 163.89187084 168.38955021 166.00127792 C169.00432411 166.61090826 169.61909801 167.2205386 170.25250143 167.84864259 C176.01801408 173.66115693 178.3013503 177.86167658 178.33707523 186.21166611 C178.34706043 187.02906769 178.35704563 187.84646927 178.36733341 188.68864059 C178.38248191 190.41411931 178.38956022 192.13968542 178.38907719 193.86523056 C178.39562435 196.48676376 178.45009148 199.10447678 178.50699711 201.72533798 C178.51580354 203.40826785 178.52175484 205.09121556 178.52457523 206.77416611 C178.55691006 207.93550819 178.55691006 207.93550819 178.58989811 209.12031174 C178.47271067 218.56710234 171.1668214 224.65706963 164.83896732 230.96049118 C164.15894319 231.64575199 163.47891905 232.33101281 162.77828813 233.0370391 C160.51710966 235.31312081 158.24893632 237.58209392 155.98062992 239.8510704 C154.35027994 241.48904814 152.72033125 243.12742538 151.0907526 244.7661705 C146.67612585 249.20268275 142.25499858 253.63265995 137.83196259 258.06078696 C135.06659594 260.8298029 132.30253059 263.60011116 129.53889561 266.37085533 C121.87457583 274.05461432 114.20880336 281.73691145 106.53621387 289.4124136 C106.04634914 289.9024659 105.55648441 290.3925182 105.05177529 290.89742057 C104.05888827 291.89067383 103.06599998 292.88392581 102.07311043 293.87717655 C101.58030182 294.37016796 101.08749322 294.86315938 100.57975101 295.37108994 C100.08633446 295.86468704 99.59291791 296.35828414 99.08454934 296.86683873 C91.08624279 304.86868851 83.09975197 312.88221959 75.11838076 320.90095808 C66.90786772 329.14960072 58.68776454 337.3885801 50.45853543 345.61855155 C45.84465017 350.23322913 41.23481566 354.85178362 36.6347971 359.48028755 C32.30869555 363.83257995 27.97075175 368.17271217 23.62352657 372.50390244 C22.0333604 374.09225526 20.44743126 375.68486346 18.86616802 377.2820797 C16.70064761 379.46810382 14.52011767 381.6380104 12.33530521 383.80472946 C11.71873798 384.43449666 11.10217075 385.06426386 10.46691966 385.71311492 C1.35533581 394.65420226 -8.1266239 397.01230884 -20.47884274 397.00243759 C-31.56063962 396.82009909 -37.8935413 393.74899473 -45.90901852 386.04760361 C-54.99197429 376.57178643 -58.84792932 367.5796535 -58.70320797 354.44652939 C-57.95119965 336.6471424 -44.98587974 326.35343468 -33.12679195 314.5385704 C-32.04963179 313.46169311 -30.97269335 312.38459399 -29.89595699 311.30729294 C-27.00178586 308.41283754 -24.10456434 305.52145371 -21.20674324 302.63065314 C-18.16169791 299.59191144 -15.11953435 296.55028735 -12.0770483 293.50898361 C-6.32313477 287.75816583 -0.5666805 282.0098984 5.19071651 276.2625683 C11.73021784 269.73425451 18.26687332 263.20309441 24.80328894 256.6716913 C35.97675809 245.50688758 47.15231263 234.34417493 58.33030033 223.18389511 C59.70943607 221.80692711 59.70943607 221.80692711 61.11643314 220.40214157 C61.91131264 219.6085609 62.70619213 218.81498022 63.52515888 217.99735165 C65.96217203 215.56328794 68.39785135 213.12789487 70.83316898 210.69213486 C75.16650232 206.35880152 79.49983565 202.02546819 83.83316898 197.69213486 C82.24534901 193.77075436 79.55076716 191.15162307 76.58384037 188.24267197 C76.04325245 187.70460859 75.50266453 187.16654522 74.94569516 186.6121769 C73.13259081 184.80982973 71.31245933 183.01474805 69.49234867 181.21947861 C68.19098897 179.92850591 66.89011268 178.63704576 65.58968449 177.34513474 C62.78708274 174.56242045 59.981607 171.78264721 57.1740427 169.00494003 C52.7292186 164.60626662 48.29417802 160.19781879 43.86106205 155.7873497 C31.25302905 143.2461564 18.63698911 130.71310238 5.99967289 118.2014122 C-0.97882986 111.29211845 -7.94643564 104.37202715 -14.90225768 97.43989849 C-18.58085138 93.774807 -22.26485925 90.11555098 -25.96252346 86.46969223 C-29.44579095 83.03522146 -32.9146661 79.58683674 -36.37337971 76.12764549 C-37.63949928 74.86633818 -38.91072142 73.61012712 -40.18758488 72.35969734 C-50.51285007 62.23920812 -58.34530994 52.35735674 -58.54183102 37.25463486 C-58.56963574 25.12693885 -55.06912465 16.67348466 -46.56136227 7.88354111 C-33.93086681 -3.67552569 -15.84956189 -8.14438073 0 0 Z " fill="#FCFBFB" transform="translate(622.1668310165405,91.30786514282227)"/>
<path d="" fill="#000000" transform="translate(0,0)"/>
<path d="" fill="#000000" transform="translate(0,0)"/>
<path d="" fill="#000000" transform="translate(0,0)"/>
<path d="" fill="#000000" transform="translate(0,0)"/>
<path d="" fill="#000000" transform="translate(0,0)"/>
<path d="" fill="#000000" transform="translate(0,0)"/>
<path d="" fill="#000000" transform="translate(0,0)"/>
<path d="" fill="#000000" transform="translate(0,0)"/>
<path d="" fill="#000000" transform="translate(0,0)"/>
<path d="" fill="#000000" transform="translate(0,0)"/>
<path d="" fill="#000000" transform="translate(0,0)"/>
<path d="" fill="#000000" transform="translate(0,0)"/>
<path d="" fill="#000000" transform="translate(0,0)"/>
<path d="" fill="#000000" transform="translate(0,0)"/>
<path d="" fill="#000000" transform="translate(0,0)"/>
<path d="" fill="#000000" transform="translate(0,0)"/>
<path d="" fill="#000000" transform="translate(0,0)"/>
<path d="" fill="#000000" transform="translate(0,0)"/>
<path d="" fill="#000000" transform="translate(0,0)"/>
<path d="" fill="#000000" transform="translate(0,0)"/>
<path d="" fill="#000000" transform="translate(0,0)"/>
<path d="" fill="#000000" transform="translate(0,0)"/>
<path d="" fill="#000000" transform="translate(0,0)"/>
<path d="" fill="#000000" transform="translate(0,0)"/>
<path d="" fill="#000000" transform="translate(0,0)"/>
<path d="" fill="#000000" transform="translate(0,0)"/>
<path d="" fill="#000000" transform="translate(0,0)"/>
<path d="" fill="#000000" transform="translate(0,0)"/>
<path d="" fill="#000000" transform="translate(0,0)"/>
<path d="" fill="#000000" transform="translate(0,0)"/>
<path d="" fill="#000000" transform="translate(0,0)"/>
<path d="" fill="#000000" transform="translate(0,0)"/>
<path d="" fill="#000000" transform="translate(0,0)"/>
<path d="" fill="#000000" transform="translate(0,0)"/>
<path d="" fill="#000000" transform="translate(0,0)"/>
<path d="" fill="#000000" transform="translate(0,0)"/>
<path d="" fill="#000000" transform="translate(0,0)"/>
<path d="" fill="#000000" transform="translate(0,0)"/>
<path d="" fill="#000000" transform="translate(0,0)"/>
<path d="" fill="#000000" transform="translate(0,0)"/>
<path d="" fill="#000000" transform="translate(0,0)"/>
<path d="" fill="#000000" transform="translate(0,0)"/>
<path d="" fill="#000000" transform="translate(0,0)"/>
<path d="" fill="#000000" transform="translate(0,0)"/>
<path d="" fill="#000000" transform="translate(0,0)"/>
</svg>
