<?xml version="1.0" encoding="UTF-8"?>
<svg version="1.1" xmlns="http://www.w3.org/2000/svg" width="800" height="800">
<path d="M0 0 C1.23600952 0.00182281 2.47201904 0.00364563 3.7454834 0.00552368 C21.85037064 0.05047985 39.59077255 0.4552031 57.5 3.3125 C59.22694092 3.57788574 59.22694092 3.57788574 60.98876953 3.84863281 C152.18798352 18.13745568 241.48410524 64.1248153 301.5 135.3125 C302.34304688 136.26640625 303.18609375 137.2203125 304.0546875 138.203125 C322.93391941 159.63915349 338.67267435 183.3629764 352.5 208.3125 C352.95084961 209.12235352 353.40169922 209.93220703 353.86621094 210.76660156 C374.88421997 248.81978896 388.48375043 290.73795977 395.75 333.5 C395.87542175 334.23210693 396.00084351 334.96421387 396.13006592 335.71850586 C399.74790116 357.08302171 400.87879726 378.15345743 400.8125 399.8125 C400.80976578 401.66651428 400.80976578 401.66651428 400.80697632 403.5579834 C400.76202015 421.66287064 400.3572969 439.40327255 397.5 457.3125 C397.32307617 458.46379395 397.14615234 459.61508789 396.96386719 460.80126953 C382.84342788 550.92576598 338.9554548 631.16723772 265.5 701.3125 C264.54351563 702.158125 263.58703125 703.00375 262.6015625 703.875 C241.1579008 722.75558456 217.43789616 738.45642265 192.5 752.3125 C191.7167334 752.75271484 190.9334668 753.19292969 190.12646484 753.64648438 C152.12766853 774.86447946 110.10285852 788.31264223 67.3125 795.5625 C66.58084625 795.68774048 65.8491925 795.81298096 65.09536743 795.9420166 C43.73036023 799.56028153 22.65961164 800.691299 1 800.625 C-0.23600952 800.62317719 -1.47201904 800.62135437 -2.7454834 800.61947632 C-20.85037064 800.57452015 -38.59077255 800.1697969 -56.5 797.3125 C-57.65129395 797.13557617 -58.80258789 796.95865234 -59.98876953 796.77636719 C-150.11326598 782.65592788 -230.35473772 738.7679548 -300.5 665.3125 C-301.3881022 664.29840881 -302.2775464 663.2854921 -303.16796875 662.2734375 C-321.881156 640.90458342 -337.84180617 617.1971006 -351.5 592.3125 C-352.16974854 591.1064209 -352.16974854 591.1064209 -352.85302734 589.87597656 C-373.87946911 551.8181915 -387.48236679 509.89518299 -394.75 467.125 C-394.87542175 466.39289307 -395.00084351 465.66078613 -395.13006592 464.90649414 C-398.74790116 443.54197829 -399.87879726 422.47154257 -399.8125 400.8125 C-399.81067719 399.57649048 -399.80885437 398.34048096 -399.80697632 397.0670166 C-399.76202015 378.96212936 -399.3572969 361.22172745 -396.5 343.3125 C-396.23461426 341.58555908 -396.23461426 341.58555908 -395.96386719 339.82373047 C-390.27541772 303.51688246 -380.04754006 267.66966178 -364.5 234.3125 C-363.71456194 232.58215914 -362.92941347 230.85168681 -362.14453125 229.12109375 C-346.0975451 194.174467 -324.15420775 161.36579223 -298.0546875 133.11328125 C-296.06282177 130.92953854 -294.12163703 128.72160725 -292.19140625 126.484375 C-288.48201202 122.23269217 -284.56265289 118.22700833 -280.5625 114.25 C-279.89798828 113.58162109 -279.23347656 112.91324219 -278.54882812 112.22460938 C-274.03056846 107.71511452 -269.34067874 103.47151564 -264.5 99.3125 C-263.40538769 98.35124147 -262.31159209 97.38905184 -261.21875 96.42578125 C-239.91381995 77.80778194 -216.28728103 61.91727888 -191.5 48.3125 C-190.69594727 47.86600098 -189.89189453 47.41950195 -189.06347656 46.95947266 C-151.0056915 25.93303089 -109.08268299 12.33013321 -66.3125 5.0625 C-65.58039307 4.93707825 -64.84828613 4.81165649 -64.09399414 4.68243408 C-42.72947829 1.06459884 -21.65904257 -0.06629726 0 0 Z M-145.5 88.3125 C-146.42554688 88.74433594 -147.35109375 89.17617187 -148.3046875 89.62109375 C-178.9125235 104.0676494 -206.67205464 123.35760991 -231.5 146.3125 C-232.50836654 147.22998948 -233.5175243 148.14660989 -234.52734375 149.0625 C-241.8502327 155.71483207 -248.99287207 162.40836659 -255.4453125 169.921875 C-256.9875053 171.71621339 -258.54791375 173.49492209 -260.1171875 175.265625 C-273.5213961 190.48023086 -285.060221 206.94759044 -295.5 224.3125 C-295.88961914 224.95654785 -296.27923828 225.6005957 -296.68066406 226.26416016 C-327.83928928 278.24553182 -343.70200981 338.77340728 -343.75 399.25 C-343.75067474 400.02640839 -343.75134949 400.80281677 -343.75204468 401.60275269 C-343.63582843 486.9130829 -311.41251924 569.67448006 -253.5 632.3125 C-252.58251052 633.32086654 -251.66589011 634.3300243 -250.75 635.33984375 C-244.09766793 642.6627327 -237.40413341 649.80537207 -229.890625 656.2578125 C-228.09628661 657.8000053 -226.31757791 659.36041375 -224.546875 660.9296875 C-163.2339887 714.94690787 -82.05752845 744.49783097 -0.5625 744.5625 C0.21390839 744.56317474 0.99031677 744.56384949 1.79025269 744.56454468 C87.1005829 744.44832843 169.86198006 712.22501924 232.5 654.3125 C233.50836654 653.39501052 234.5175243 652.47839011 235.52734375 651.5625 C242.8502327 644.91016793 249.99287207 638.21663341 256.4453125 630.703125 C257.9875053 628.90878661 259.54791375 627.13007791 261.1171875 625.359375 C315.18901741 563.9845035 344.68527346 482.94250181 344.75 401.375 C344.75067474 400.59859161 344.75134949 399.82218323 344.75204468 399.02224731 C344.68382621 348.94542748 333.67561249 299.67983596 312.5 254.3125 C312.06816406 253.38695312 311.63632812 252.46140625 311.19140625 251.5078125 C296.7448506 220.8999765 277.45489009 193.14044536 254.5 168.3125 C253.58251052 167.30413346 252.66589011 166.2949757 251.75 165.28515625 C245.09766793 157.9622673 238.40413341 150.81962793 230.890625 144.3671875 C229.09628661 142.8249947 227.31757791 141.26458625 225.546875 139.6953125 C210.33226914 126.2911039 193.86490956 114.752279 176.5 104.3125 C175.85595215 103.92288086 175.2119043 103.53326172 174.54833984 103.13183594 C122.46778312 71.91375731 62.15052478 56.11057862 1.5625 56.0625 C0.78609161 56.06182526 0.00968323 56.06115051 -0.79025269 56.06045532 C-50.86707252 56.12867379 -100.13266404 67.13688751 -145.5 88.3125 Z " fill="#FEFEFC" transform="translate(399.5,-0.3125)"/>
<path d="M0 0 C0.96091553 0.5374585 1.92183105 1.07491699 2.91186523 1.62866211 C3.87680908 2.17530518 4.84175293 2.72194824 5.8359375 3.28515625 C6.71258057 3.77443604 7.58922363 4.26371582 8.49243164 4.76782227 C11.17415178 6.2653736 13.84967422 7.77344709 16.5234375 9.28515625 C17.51255127 9.84420654 18.50166504 10.40325684 19.52075195 10.97924805 C27.5539708 15.53265105 35.53335951 20.17439941 43.50073242 24.84179688 C51.2494969 29.37546936 59.03562481 33.84109126 66.8359375 38.28515625 C76.55727849 43.82484524 86.24488842 49.41890688 95.90283203 55.06860352 C106.42678375 61.22282367 116.98973887 67.30885621 127.55371094 73.39404297 C132.98253692 76.52195773 138.40913031 79.65374073 143.8359375 82.78515625 C146.00259333 84.03517504 148.16926 85.28517503 150.3359375 86.53515625 C195.8359375 112.78515625 195.8359375 112.78515625 241.3359375 139.03515625 C242.40875977 139.65406738 243.48158203 140.27297852 244.58691406 140.91064453 C246.75041226 142.15886659 248.91382393 143.40723864 251.07714844 144.65576172 C256.54158767 147.80920881 262.00757395 150.95991721 267.4765625 154.10546875 C278.05469211 160.19203843 288.62214241 166.29678342 299.1484375 172.47265625 C300.05561523 173.00133301 300.96279297 173.53000977 301.89746094 174.07470703 C315.31463798 181.97969902 315.31463798 181.97969902 317.8359375 190.28515625 C318.83308759 197.77889023 318.30738329 204.08897504 313.8359375 210.28515625 C307.94119096 215.9941779 301.15550155 219.75224499 294.0234375 223.72265625 C292.77505195 224.42546096 291.52717646 225.12917237 290.27978516 225.83374023 C287.71741913 227.28072702 285.15340811 228.7247324 282.58837891 230.16699219 C276.93747209 233.35025965 271.32460538 236.59930993 265.7109375 239.84765625 C263.56255166 241.08863111 261.41411414 242.32951649 259.265625 243.5703125 C258.20569336 244.18277832 257.14576172 244.79524414 256.05371094 245.42626953 C250.64923105 248.5484023 245.24246338 251.66656829 239.8359375 254.78515625 C237.66926 256.03513747 235.50259333 257.28513746 233.3359375 258.53515625 C194.3359375 281.03515625 194.3359375 281.03515625 191.08544922 282.91040039 C188.92036679 284.15951143 186.75532768 285.40869754 184.59033203 286.65795898 C179.14978044 289.79717934 173.70846534 292.93506188 168.265625 296.0703125 C157.81387551 302.09262954 147.37294202 308.13184962 136.9609375 314.22265625 C127.69093973 319.64436803 118.37761998 324.9872054 109.04748535 330.30438232 C99.9231091 335.50560754 90.83460976 340.76543503 81.76904297 346.06860352 C71.24509125 352.22282367 60.68213613 358.30885621 50.11816406 364.39404297 C45.77020834 366.89919508 41.42362809 369.40672502 37.07763672 371.9152832 C34.92644209 373.1561327 32.77443054 374.39556709 30.62158203 375.63354492 C25.58334601 378.53276315 20.55354154 381.44406194 15.55151367 384.40527344 C13.78759177 385.44865879 12.02115797 386.48765686 10.25390625 387.52539062 C8.04308086 388.82535595 5.83699228 390.13342564 3.63671875 391.45117188 C-5.01718957 396.52052278 -12.83577426 400.67949124 -22.91015625 398.078125 C-28.82460377 395.99730551 -32.59313694 392.34396745 -36.1640625 387.28515625 C-37.74201548 382.66704185 -38.41469664 378.63136855 -38.41853809 373.76423836 C-38.42437029 372.48789532 -38.43020248 371.21155228 -38.43621141 369.89653218 C-38.43257876 368.49271733 -38.42875441 367.08890297 -38.42475891 365.68508911 C-38.42778105 364.18403269 -38.43167085 362.68297782 -38.43635148 361.18192565 C-38.44663214 357.06491715 -38.44444948 352.94799572 -38.44017088 348.83098006 C-38.43770379 344.38779877 -38.44671763 339.94463845 -38.45420837 335.50146484 C-38.46695787 326.7997844 -38.46874875 318.09813481 -38.46640811 309.3964466 C-38.46462507 302.32336483 -38.4663743 295.25029242 -38.47063255 288.17721176 C-38.47122774 287.17052721 -38.47182293 286.16384265 -38.47243616 285.1266525 C-38.47364791 283.08156682 -38.47486204 281.03648114 -38.47607853 278.99139546 C-38.48695505 259.81235724 -38.48479106 240.63333661 -38.47869369 221.45429741 C-38.47352448 203.91064755 -38.48477987 186.36705322 -38.50379191 168.82341434 C-38.52316615 150.80735631 -38.53142703 132.79132455 -38.52766865 114.77525604 C-38.52575598 104.66151405 -38.52825067 94.54781933 -38.54238319 84.43408585 C-38.55429268 75.82412288 -38.55570672 67.21423627 -38.54359303 58.60427226 C-38.53770131 54.21228109 -38.536613 49.82042961 -38.54859543 45.42844772 C-38.55944381 41.40534715 -38.55636337 37.38250308 -38.54233374 33.35941456 C-38.53968393 31.90657974 -38.5420623 30.45372488 -38.55006961 29.0009097 C-38.60306576 18.66542846 -38.24664641 9.64363929 -30.90234375 1.7890625 C-21.51179923 -6.33534118 -10.4335489 -5.87727362 0 0 Z " fill="#FEFEFB" transform="translate(290.1640625,202.71484375)"/>
<path d="" fill="#000000" transform="translate(0,0)"/>
<path d="" fill="#000000" transform="translate(0,0)"/>
<path d="" fill="#000000" transform="translate(0,0)"/>
<path d="" fill="#000000" transform="translate(0,0)"/>
<path d="" fill="#000000" transform="translate(0,0)"/>
<path d="" fill="#000000" transform="translate(0,0)"/>
<path d="" fill="#000000" transform="translate(0,0)"/>
<path d="" fill="#000000" transform="translate(0,0)"/>
<path d="" fill="#000000" transform="translate(0,0)"/>
<path d="" fill="#000000" transform="translate(0,0)"/>
<path d="" fill="#000000" transform="translate(0,0)"/>
<path d="" fill="#000000" transform="translate(0,0)"/>
<path d="" fill="#000000" transform="translate(0,0)"/>
<path d="" fill="#000000" transform="translate(0,0)"/>
<path d="" fill="#000000" transform="translate(0,0)"/>
<path d="" fill="#000000" transform="translate(0,0)"/>
<path d="" fill="#000000" transform="translate(0,0)"/>
<path d="" fill="#000000" transform="translate(0,0)"/>
<path d="" fill="#000000" transform="translate(0,0)"/>
<path d="" fill="#000000" transform="translate(0,0)"/>
<path d="" fill="#000000" transform="translate(0,0)"/>
<path d="" fill="#000000" transform="translate(0,0)"/>
<path d="" fill="#000000" transform="translate(0,0)"/>
<path d="" fill="#000000" transform="translate(0,0)"/>
<path d="" fill="#000000" transform="translate(0,0)"/>
<path d="" fill="#000000" transform="translate(0,0)"/>
<path d="" fill="#000000" transform="translate(0,0)"/>
<path d="" fill="#000000" transform="translate(0,0)"/>
<path d="" fill="#000000" transform="translate(0,0)"/>
<path d="" fill="#000000" transform="translate(0,0)"/>
<path d="" fill="#000000" transform="translate(0,0)"/>
<path d="" fill="#000000" transform="translate(0,0)"/>
<path d="" fill="#000000" transform="translate(0,0)"/>
<path d="" fill="#000000" transform="translate(0,0)"/>
<path d="" fill="#000000" transform="translate(0,0)"/>
<path d="" fill="#000000" transform="translate(0,0)"/>
<path d="" fill="#000000" transform="translate(0,0)"/>
<path d="" fill="#000000" transform="translate(0,0)"/>
<path d="" fill="#000000" transform="translate(0,0)"/>
<path d="" fill="#000000" transform="translate(0,0)"/>
<path d="" fill="#000000" transform="translate(0,0)"/>
<path d="" fill="#000000" transform="translate(0,0)"/>
<path d="" fill="#000000" transform="translate(0,0)"/>
<path d="" fill="#000000" transform="translate(0,0)"/>
<path d="" fill="#000000" transform="translate(0,0)"/>
<path d="" fill="#000000" transform="translate(0,0)"/>
<path d="" fill="#000000" transform="translate(0,0)"/>
<path d="" fill="#000000" transform="translate(0,0)"/>
</svg>
